<mxfile host="app.diagrams.net" modified="2022-08-18T09:23:43.206Z" agent="5.0 (Windows NT 10.0; Win64; x64) AppleWebKit/537.36 (KHTML, like Gecko) Chrome/104.0.0.0 Safari/537.36" etag="CJgnXSDEAr_6DS-T7-Oy" version="20.2.3" type="github">
  <diagram id="3c24AsqYGaXlDhHnc8fw" name="Page-1">
    <mxGraphModel dx="1888" dy="489" grid="1" gridSize="10" guides="1" tooltips="1" connect="1" arrows="1" fold="1" page="1" pageScale="1" pageWidth="850" pageHeight="1100" math="0" shadow="0">
      <root>
        <mxCell id="0" />
        <mxCell id="1" parent="0" />
        <mxCell id="deoc2bzUFyKSPwzauPjy-1" value="" style="shape=table;startSize=0;container=1;collapsible=0;childLayout=tableLayout;" vertex="1" parent="1">
          <mxGeometry x="-719" y="589" width="681" height="40" as="geometry" />
        </mxCell>
        <mxCell id="deoc2bzUFyKSPwzauPjy-2" value="" style="shape=tableRow;horizontal=0;startSize=0;swimlaneHead=0;swimlaneBody=0;top=0;left=0;bottom=0;right=0;collapsible=0;dropTarget=0;fillColor=none;points=[[0,0.5],[1,0.5]];portConstraint=eastwest;" vertex="1" parent="deoc2bzUFyKSPwzauPjy-1">
          <mxGeometry width="681" height="40" as="geometry" />
        </mxCell>
        <mxCell id="deoc2bzUFyKSPwzauPjy-3" value="6&lt;br&gt;3" style="shape=partialRectangle;html=1;whiteSpace=wrap;connectable=0;overflow=hidden;fillColor=none;top=0;left=0;bottom=0;right=0;pointerEvents=1;" vertex="1" parent="deoc2bzUFyKSPwzauPjy-2">
          <mxGeometry width="11" height="40" as="geometry">
            <mxRectangle width="11" height="40" as="alternateBounds" />
          </mxGeometry>
        </mxCell>
        <mxCell id="deoc2bzUFyKSPwzauPjy-4" style="shape=partialRectangle;html=1;whiteSpace=wrap;connectable=0;overflow=hidden;fillColor=none;top=0;left=0;bottom=0;right=0;pointerEvents=1;" vertex="1" parent="deoc2bzUFyKSPwzauPjy-2">
          <mxGeometry x="11" width="10" height="40" as="geometry">
            <mxRectangle width="10" height="40" as="alternateBounds" />
          </mxGeometry>
        </mxCell>
        <mxCell id="deoc2bzUFyKSPwzauPjy-5" style="shape=partialRectangle;html=1;whiteSpace=wrap;connectable=0;overflow=hidden;fillColor=none;top=0;left=0;bottom=0;right=0;pointerEvents=1;" vertex="1" parent="deoc2bzUFyKSPwzauPjy-2">
          <mxGeometry x="21" width="11" height="40" as="geometry">
            <mxRectangle width="11" height="40" as="alternateBounds" />
          </mxGeometry>
        </mxCell>
        <mxCell id="deoc2bzUFyKSPwzauPjy-6" style="shape=partialRectangle;html=1;whiteSpace=wrap;connectable=0;overflow=hidden;fillColor=none;top=0;left=0;bottom=0;right=0;pointerEvents=1;" vertex="1" parent="deoc2bzUFyKSPwzauPjy-2">
          <mxGeometry x="32" width="12" height="40" as="geometry">
            <mxRectangle width="12" height="40" as="alternateBounds" />
          </mxGeometry>
        </mxCell>
        <mxCell id="deoc2bzUFyKSPwzauPjy-7" style="shape=partialRectangle;html=1;whiteSpace=wrap;connectable=0;overflow=hidden;fillColor=none;top=0;left=0;bottom=0;right=0;pointerEvents=1;" vertex="1" parent="deoc2bzUFyKSPwzauPjy-2">
          <mxGeometry x="44" width="10" height="40" as="geometry">
            <mxRectangle width="10" height="40" as="alternateBounds" />
          </mxGeometry>
        </mxCell>
        <mxCell id="deoc2bzUFyKSPwzauPjy-8" style="shape=partialRectangle;html=1;whiteSpace=wrap;connectable=0;overflow=hidden;fillColor=none;top=0;left=0;bottom=0;right=0;pointerEvents=1;" vertex="1" parent="deoc2bzUFyKSPwzauPjy-2">
          <mxGeometry x="54" width="11" height="40" as="geometry">
            <mxRectangle width="11" height="40" as="alternateBounds" />
          </mxGeometry>
        </mxCell>
        <mxCell id="deoc2bzUFyKSPwzauPjy-9" style="shape=partialRectangle;html=1;whiteSpace=wrap;connectable=0;overflow=hidden;fillColor=none;top=0;left=0;bottom=0;right=0;pointerEvents=1;" vertex="1" parent="deoc2bzUFyKSPwzauPjy-2">
          <mxGeometry x="65" width="11" height="40" as="geometry">
            <mxRectangle width="11" height="40" as="alternateBounds" />
          </mxGeometry>
        </mxCell>
        <mxCell id="deoc2bzUFyKSPwzauPjy-10" style="shape=partialRectangle;html=1;whiteSpace=wrap;connectable=0;overflow=hidden;fillColor=none;top=0;left=0;bottom=0;right=0;pointerEvents=1;" vertex="1" parent="deoc2bzUFyKSPwzauPjy-2">
          <mxGeometry x="76" width="10" height="40" as="geometry">
            <mxRectangle width="10" height="40" as="alternateBounds" />
          </mxGeometry>
        </mxCell>
        <mxCell id="deoc2bzUFyKSPwzauPjy-11" style="shape=partialRectangle;html=1;whiteSpace=wrap;connectable=0;overflow=hidden;fillColor=none;top=0;left=0;bottom=0;right=0;pointerEvents=1;" vertex="1" parent="deoc2bzUFyKSPwzauPjy-2">
          <mxGeometry x="86" width="11" height="40" as="geometry">
            <mxRectangle width="11" height="40" as="alternateBounds" />
          </mxGeometry>
        </mxCell>
        <mxCell id="deoc2bzUFyKSPwzauPjy-12" style="shape=partialRectangle;html=1;whiteSpace=wrap;connectable=0;overflow=hidden;fillColor=none;top=0;left=0;bottom=0;right=0;pointerEvents=1;" vertex="1" parent="deoc2bzUFyKSPwzauPjy-2">
          <mxGeometry x="97" width="12" height="40" as="geometry">
            <mxRectangle width="12" height="40" as="alternateBounds" />
          </mxGeometry>
        </mxCell>
        <mxCell id="deoc2bzUFyKSPwzauPjy-13" style="shape=partialRectangle;html=1;whiteSpace=wrap;connectable=0;overflow=hidden;fillColor=none;top=0;left=0;bottom=0;right=0;pointerEvents=1;" vertex="1" parent="deoc2bzUFyKSPwzauPjy-2">
          <mxGeometry x="109" width="10" height="40" as="geometry">
            <mxRectangle width="10" height="40" as="alternateBounds" />
          </mxGeometry>
        </mxCell>
        <mxCell id="deoc2bzUFyKSPwzauPjy-14" style="shape=partialRectangle;html=1;whiteSpace=wrap;connectable=0;overflow=hidden;fillColor=none;top=0;left=0;bottom=0;right=0;pointerEvents=1;" vertex="1" parent="deoc2bzUFyKSPwzauPjy-2">
          <mxGeometry x="119" width="12" height="40" as="geometry">
            <mxRectangle width="12" height="40" as="alternateBounds" />
          </mxGeometry>
        </mxCell>
        <mxCell id="deoc2bzUFyKSPwzauPjy-15" style="shape=partialRectangle;html=1;whiteSpace=wrap;connectable=0;overflow=hidden;fillColor=none;top=0;left=0;bottom=0;right=0;pointerEvents=1;" vertex="1" parent="deoc2bzUFyKSPwzauPjy-2">
          <mxGeometry x="131" width="11" height="40" as="geometry">
            <mxRectangle width="11" height="40" as="alternateBounds" />
          </mxGeometry>
        </mxCell>
        <mxCell id="deoc2bzUFyKSPwzauPjy-16" style="shape=partialRectangle;html=1;whiteSpace=wrap;connectable=0;overflow=hidden;fillColor=none;top=0;left=0;bottom=0;right=0;pointerEvents=1;" vertex="1" parent="deoc2bzUFyKSPwzauPjy-2">
          <mxGeometry x="142" width="10" height="40" as="geometry">
            <mxRectangle width="10" height="40" as="alternateBounds" />
          </mxGeometry>
        </mxCell>
        <mxCell id="deoc2bzUFyKSPwzauPjy-17" style="shape=partialRectangle;html=1;whiteSpace=wrap;connectable=0;overflow=hidden;fillColor=none;top=0;left=0;bottom=0;right=0;pointerEvents=1;" vertex="1" parent="deoc2bzUFyKSPwzauPjy-2">
          <mxGeometry x="152" width="9" height="40" as="geometry">
            <mxRectangle width="9" height="40" as="alternateBounds" />
          </mxGeometry>
        </mxCell>
        <mxCell id="deoc2bzUFyKSPwzauPjy-18" style="shape=partialRectangle;html=1;whiteSpace=wrap;connectable=0;overflow=hidden;fillColor=none;top=0;left=0;bottom=0;right=0;pointerEvents=1;" vertex="1" parent="deoc2bzUFyKSPwzauPjy-2">
          <mxGeometry x="161" width="12" height="40" as="geometry">
            <mxRectangle width="12" height="40" as="alternateBounds" />
          </mxGeometry>
        </mxCell>
        <mxCell id="deoc2bzUFyKSPwzauPjy-19" style="shape=partialRectangle;html=1;whiteSpace=wrap;connectable=0;overflow=hidden;fillColor=none;top=0;left=0;bottom=0;right=0;pointerEvents=1;" vertex="1" parent="deoc2bzUFyKSPwzauPjy-2">
          <mxGeometry x="173" width="12" height="40" as="geometry">
            <mxRectangle width="12" height="40" as="alternateBounds" />
          </mxGeometry>
        </mxCell>
        <mxCell id="deoc2bzUFyKSPwzauPjy-20" style="shape=partialRectangle;html=1;whiteSpace=wrap;connectable=0;overflow=hidden;fillColor=none;top=0;left=0;bottom=0;right=0;pointerEvents=1;" vertex="1" parent="deoc2bzUFyKSPwzauPjy-2">
          <mxGeometry x="185" width="10" height="40" as="geometry">
            <mxRectangle width="10" height="40" as="alternateBounds" />
          </mxGeometry>
        </mxCell>
        <mxCell id="deoc2bzUFyKSPwzauPjy-21" style="shape=partialRectangle;html=1;whiteSpace=wrap;connectable=0;overflow=hidden;fillColor=none;top=0;left=0;bottom=0;right=0;pointerEvents=1;" vertex="1" parent="deoc2bzUFyKSPwzauPjy-2">
          <mxGeometry x="195" width="11" height="40" as="geometry">
            <mxRectangle width="11" height="40" as="alternateBounds" />
          </mxGeometry>
        </mxCell>
        <mxCell id="deoc2bzUFyKSPwzauPjy-22" style="shape=partialRectangle;html=1;whiteSpace=wrap;connectable=0;overflow=hidden;fillColor=none;top=0;left=0;bottom=0;right=0;pointerEvents=1;" vertex="1" parent="deoc2bzUFyKSPwzauPjy-2">
          <mxGeometry x="206" width="10" height="40" as="geometry">
            <mxRectangle width="10" height="40" as="alternateBounds" />
          </mxGeometry>
        </mxCell>
        <mxCell id="deoc2bzUFyKSPwzauPjy-23" style="shape=partialRectangle;html=1;whiteSpace=wrap;connectable=0;overflow=hidden;fillColor=none;top=0;left=0;bottom=0;right=0;pointerEvents=1;" vertex="1" parent="deoc2bzUFyKSPwzauPjy-2">
          <mxGeometry x="216" width="10" height="40" as="geometry">
            <mxRectangle width="10" height="40" as="alternateBounds" />
          </mxGeometry>
        </mxCell>
        <mxCell id="deoc2bzUFyKSPwzauPjy-24" style="shape=partialRectangle;html=1;whiteSpace=wrap;connectable=0;overflow=hidden;fillColor=none;top=0;left=0;bottom=0;right=0;pointerEvents=1;" vertex="1" parent="deoc2bzUFyKSPwzauPjy-2">
          <mxGeometry x="226" width="13" height="40" as="geometry">
            <mxRectangle width="13" height="40" as="alternateBounds" />
          </mxGeometry>
        </mxCell>
        <mxCell id="deoc2bzUFyKSPwzauPjy-25" style="shape=partialRectangle;html=1;whiteSpace=wrap;connectable=0;overflow=hidden;fillColor=none;top=0;left=0;bottom=0;right=0;pointerEvents=1;" vertex="1" parent="deoc2bzUFyKSPwzauPjy-2">
          <mxGeometry x="239" width="11" height="40" as="geometry">
            <mxRectangle width="11" height="40" as="alternateBounds" />
          </mxGeometry>
        </mxCell>
        <mxCell id="deoc2bzUFyKSPwzauPjy-26" style="shape=partialRectangle;html=1;whiteSpace=wrap;connectable=0;overflow=hidden;fillColor=none;top=0;left=0;bottom=0;right=0;pointerEvents=1;" vertex="1" parent="deoc2bzUFyKSPwzauPjy-2">
          <mxGeometry x="250" width="10" height="40" as="geometry">
            <mxRectangle width="10" height="40" as="alternateBounds" />
          </mxGeometry>
        </mxCell>
        <mxCell id="deoc2bzUFyKSPwzauPjy-27" style="shape=partialRectangle;html=1;whiteSpace=wrap;connectable=0;overflow=hidden;fillColor=none;top=0;left=0;bottom=0;right=0;pointerEvents=1;" vertex="1" parent="deoc2bzUFyKSPwzauPjy-2">
          <mxGeometry x="260" width="11" height="40" as="geometry">
            <mxRectangle width="11" height="40" as="alternateBounds" />
          </mxGeometry>
        </mxCell>
        <mxCell id="deoc2bzUFyKSPwzauPjy-28" style="shape=partialRectangle;html=1;whiteSpace=wrap;connectable=0;overflow=hidden;fillColor=none;top=0;left=0;bottom=0;right=0;pointerEvents=1;" vertex="1" parent="deoc2bzUFyKSPwzauPjy-2">
          <mxGeometry x="271" width="10" height="40" as="geometry">
            <mxRectangle width="10" height="40" as="alternateBounds" />
          </mxGeometry>
        </mxCell>
        <mxCell id="deoc2bzUFyKSPwzauPjy-29" style="shape=partialRectangle;html=1;whiteSpace=wrap;connectable=0;overflow=hidden;fillColor=none;top=0;left=0;bottom=0;right=0;pointerEvents=1;" vertex="1" parent="deoc2bzUFyKSPwzauPjy-2">
          <mxGeometry x="281" width="11" height="40" as="geometry">
            <mxRectangle width="11" height="40" as="alternateBounds" />
          </mxGeometry>
        </mxCell>
        <mxCell id="deoc2bzUFyKSPwzauPjy-30" style="shape=partialRectangle;html=1;whiteSpace=wrap;connectable=0;overflow=hidden;fillColor=none;top=0;left=0;bottom=0;right=0;pointerEvents=1;" vertex="1" parent="deoc2bzUFyKSPwzauPjy-2">
          <mxGeometry x="292" width="11" height="40" as="geometry">
            <mxRectangle width="11" height="40" as="alternateBounds" />
          </mxGeometry>
        </mxCell>
        <mxCell id="deoc2bzUFyKSPwzauPjy-31" style="shape=partialRectangle;html=1;whiteSpace=wrap;connectable=0;overflow=hidden;fillColor=none;top=0;left=0;bottom=0;right=0;pointerEvents=1;" vertex="1" parent="deoc2bzUFyKSPwzauPjy-2">
          <mxGeometry x="303" width="12" height="40" as="geometry">
            <mxRectangle width="12" height="40" as="alternateBounds" />
          </mxGeometry>
        </mxCell>
        <mxCell id="deoc2bzUFyKSPwzauPjy-32" style="shape=partialRectangle;html=1;whiteSpace=wrap;connectable=0;overflow=hidden;fillColor=none;top=0;left=0;bottom=0;right=0;pointerEvents=1;" vertex="1" parent="deoc2bzUFyKSPwzauPjy-2">
          <mxGeometry x="315" width="10" height="40" as="geometry">
            <mxRectangle width="10" height="40" as="alternateBounds" />
          </mxGeometry>
        </mxCell>
        <mxCell id="deoc2bzUFyKSPwzauPjy-33" style="shape=partialRectangle;html=1;whiteSpace=wrap;connectable=0;overflow=hidden;fillColor=none;top=0;left=0;bottom=0;right=0;pointerEvents=1;" vertex="1" parent="deoc2bzUFyKSPwzauPjy-2">
          <mxGeometry x="325" width="11" height="40" as="geometry">
            <mxRectangle width="11" height="40" as="alternateBounds" />
          </mxGeometry>
        </mxCell>
        <mxCell id="deoc2bzUFyKSPwzauPjy-34" style="shape=partialRectangle;html=1;whiteSpace=wrap;connectable=0;overflow=hidden;fillColor=none;top=0;left=0;bottom=0;right=0;pointerEvents=1;" vertex="1" parent="deoc2bzUFyKSPwzauPjy-2">
          <mxGeometry x="336" width="11" height="40" as="geometry">
            <mxRectangle width="11" height="40" as="alternateBounds" />
          </mxGeometry>
        </mxCell>
        <mxCell id="deoc2bzUFyKSPwzauPjy-35" style="shape=partialRectangle;html=1;whiteSpace=wrap;connectable=0;overflow=hidden;fillColor=none;top=0;left=0;bottom=0;right=0;pointerEvents=1;" vertex="1" parent="deoc2bzUFyKSPwzauPjy-2">
          <mxGeometry x="347" width="10" height="40" as="geometry">
            <mxRectangle width="10" height="40" as="alternateBounds" />
          </mxGeometry>
        </mxCell>
        <mxCell id="deoc2bzUFyKSPwzauPjy-36" style="shape=partialRectangle;html=1;whiteSpace=wrap;connectable=0;overflow=hidden;fillColor=none;top=0;left=0;bottom=0;right=0;pointerEvents=1;" vertex="1" parent="deoc2bzUFyKSPwzauPjy-2">
          <mxGeometry x="357" width="11" height="40" as="geometry">
            <mxRectangle width="11" height="40" as="alternateBounds" />
          </mxGeometry>
        </mxCell>
        <mxCell id="deoc2bzUFyKSPwzauPjy-37" style="shape=partialRectangle;html=1;whiteSpace=wrap;connectable=0;overflow=hidden;fillColor=none;top=0;left=0;bottom=0;right=0;pointerEvents=1;" vertex="1" parent="deoc2bzUFyKSPwzauPjy-2">
          <mxGeometry x="368" width="12" height="40" as="geometry">
            <mxRectangle width="12" height="40" as="alternateBounds" />
          </mxGeometry>
        </mxCell>
        <mxCell id="deoc2bzUFyKSPwzauPjy-38" style="shape=partialRectangle;html=1;whiteSpace=wrap;connectable=0;overflow=hidden;fillColor=none;top=0;left=0;bottom=0;right=0;pointerEvents=1;" vertex="1" parent="deoc2bzUFyKSPwzauPjy-2">
          <mxGeometry x="380" width="11" height="40" as="geometry">
            <mxRectangle width="11" height="40" as="alternateBounds" />
          </mxGeometry>
        </mxCell>
        <mxCell id="deoc2bzUFyKSPwzauPjy-39" value="" style="shape=partialRectangle;html=1;whiteSpace=wrap;connectable=0;overflow=hidden;fillColor=none;top=0;left=0;bottom=0;right=0;pointerEvents=1;" vertex="1" parent="deoc2bzUFyKSPwzauPjy-2">
          <mxGeometry x="391" width="10" height="40" as="geometry">
            <mxRectangle width="10" height="40" as="alternateBounds" />
          </mxGeometry>
        </mxCell>
        <mxCell id="deoc2bzUFyKSPwzauPjy-40" value="" style="shape=partialRectangle;html=1;whiteSpace=wrap;connectable=0;overflow=hidden;fillColor=none;top=0;left=0;bottom=0;right=0;pointerEvents=1;" vertex="1" parent="deoc2bzUFyKSPwzauPjy-2">
          <mxGeometry x="401" width="10" height="40" as="geometry">
            <mxRectangle width="10" height="40" as="alternateBounds" />
          </mxGeometry>
        </mxCell>
        <mxCell id="deoc2bzUFyKSPwzauPjy-41" value="" style="shape=partialRectangle;html=1;whiteSpace=wrap;connectable=0;overflow=hidden;fillColor=none;top=0;left=0;bottom=0;right=0;pointerEvents=1;" vertex="1" parent="deoc2bzUFyKSPwzauPjy-2">
          <mxGeometry x="411" width="11" height="40" as="geometry">
            <mxRectangle width="11" height="40" as="alternateBounds" />
          </mxGeometry>
        </mxCell>
        <mxCell id="deoc2bzUFyKSPwzauPjy-42" value="" style="shape=partialRectangle;html=1;whiteSpace=wrap;connectable=0;overflow=hidden;fillColor=none;top=0;left=0;bottom=0;right=0;pointerEvents=1;" vertex="1" parent="deoc2bzUFyKSPwzauPjy-2">
          <mxGeometry x="422" width="9" height="40" as="geometry">
            <mxRectangle width="9" height="40" as="alternateBounds" />
          </mxGeometry>
        </mxCell>
        <mxCell id="deoc2bzUFyKSPwzauPjy-43" value="" style="shape=partialRectangle;html=1;whiteSpace=wrap;connectable=0;overflow=hidden;fillColor=none;top=0;left=0;bottom=0;right=0;pointerEvents=1;" vertex="1" parent="deoc2bzUFyKSPwzauPjy-2">
          <mxGeometry x="431" width="13" height="40" as="geometry">
            <mxRectangle width="13" height="40" as="alternateBounds" />
          </mxGeometry>
        </mxCell>
        <mxCell id="deoc2bzUFyKSPwzauPjy-44" value="" style="shape=partialRectangle;html=1;whiteSpace=wrap;connectable=0;overflow=hidden;fillColor=none;top=0;left=0;bottom=0;right=0;pointerEvents=1;" vertex="1" parent="deoc2bzUFyKSPwzauPjy-2">
          <mxGeometry x="444" width="10" height="40" as="geometry">
            <mxRectangle width="10" height="40" as="alternateBounds" />
          </mxGeometry>
        </mxCell>
        <mxCell id="deoc2bzUFyKSPwzauPjy-45" value="" style="shape=partialRectangle;html=1;whiteSpace=wrap;connectable=0;overflow=hidden;fillColor=none;top=0;left=0;bottom=0;right=0;pointerEvents=1;" vertex="1" parent="deoc2bzUFyKSPwzauPjy-2">
          <mxGeometry x="454" width="10" height="40" as="geometry">
            <mxRectangle width="10" height="40" as="alternateBounds" />
          </mxGeometry>
        </mxCell>
        <mxCell id="deoc2bzUFyKSPwzauPjy-46" value="" style="shape=partialRectangle;html=1;whiteSpace=wrap;connectable=0;overflow=hidden;fillColor=none;top=0;left=0;bottom=0;right=0;pointerEvents=1;" vertex="1" parent="deoc2bzUFyKSPwzauPjy-2">
          <mxGeometry x="464" width="10" height="40" as="geometry">
            <mxRectangle width="10" height="40" as="alternateBounds" />
          </mxGeometry>
        </mxCell>
        <mxCell id="deoc2bzUFyKSPwzauPjy-47" value="" style="shape=partialRectangle;html=1;whiteSpace=wrap;connectable=0;overflow=hidden;fillColor=none;top=0;left=0;bottom=0;right=0;pointerEvents=1;" vertex="1" parent="deoc2bzUFyKSPwzauPjy-2">
          <mxGeometry x="474" width="11" height="40" as="geometry">
            <mxRectangle width="11" height="40" as="alternateBounds" />
          </mxGeometry>
        </mxCell>
        <mxCell id="deoc2bzUFyKSPwzauPjy-48" value="" style="shape=partialRectangle;html=1;whiteSpace=wrap;connectable=0;overflow=hidden;fillColor=none;top=0;left=0;bottom=0;right=0;pointerEvents=1;" vertex="1" parent="deoc2bzUFyKSPwzauPjy-2">
          <mxGeometry x="485" width="10" height="40" as="geometry">
            <mxRectangle width="10" height="40" as="alternateBounds" />
          </mxGeometry>
        </mxCell>
        <mxCell id="deoc2bzUFyKSPwzauPjy-49" value="" style="shape=partialRectangle;html=1;whiteSpace=wrap;connectable=0;overflow=hidden;fillColor=none;top=0;left=0;bottom=0;right=0;pointerEvents=1;" vertex="1" parent="deoc2bzUFyKSPwzauPjy-2">
          <mxGeometry x="495" width="10" height="40" as="geometry">
            <mxRectangle width="10" height="40" as="alternateBounds" />
          </mxGeometry>
        </mxCell>
        <mxCell id="deoc2bzUFyKSPwzauPjy-50" value="" style="shape=partialRectangle;html=1;whiteSpace=wrap;connectable=0;overflow=hidden;fillColor=none;top=0;left=0;bottom=0;right=0;pointerEvents=1;" vertex="1" parent="deoc2bzUFyKSPwzauPjy-2">
          <mxGeometry x="505" width="12" height="40" as="geometry">
            <mxRectangle width="12" height="40" as="alternateBounds" />
          </mxGeometry>
        </mxCell>
        <mxCell id="deoc2bzUFyKSPwzauPjy-51" value="" style="shape=partialRectangle;html=1;whiteSpace=wrap;connectable=0;overflow=hidden;fillColor=none;top=0;left=0;bottom=0;right=0;pointerEvents=1;" vertex="1" parent="deoc2bzUFyKSPwzauPjy-2">
          <mxGeometry x="517" width="10" height="40" as="geometry">
            <mxRectangle width="10" height="40" as="alternateBounds" />
          </mxGeometry>
        </mxCell>
        <mxCell id="deoc2bzUFyKSPwzauPjy-52" value="" style="shape=partialRectangle;html=1;whiteSpace=wrap;connectable=0;overflow=hidden;fillColor=none;top=0;left=0;bottom=0;right=0;pointerEvents=1;" vertex="1" parent="deoc2bzUFyKSPwzauPjy-2">
          <mxGeometry x="527" width="9" height="40" as="geometry">
            <mxRectangle width="9" height="40" as="alternateBounds" />
          </mxGeometry>
        </mxCell>
        <mxCell id="deoc2bzUFyKSPwzauPjy-53" value="" style="shape=partialRectangle;html=1;whiteSpace=wrap;connectable=0;overflow=hidden;fillColor=none;top=0;left=0;bottom=0;right=0;pointerEvents=1;" vertex="1" parent="deoc2bzUFyKSPwzauPjy-2">
          <mxGeometry x="536" width="12" height="40" as="geometry">
            <mxRectangle width="12" height="40" as="alternateBounds" />
          </mxGeometry>
        </mxCell>
        <mxCell id="deoc2bzUFyKSPwzauPjy-54" value="" style="shape=partialRectangle;html=1;whiteSpace=wrap;connectable=0;overflow=hidden;fillColor=none;top=0;left=0;bottom=0;right=0;pointerEvents=1;" vertex="1" parent="deoc2bzUFyKSPwzauPjy-2">
          <mxGeometry x="548" width="10" height="40" as="geometry">
            <mxRectangle width="10" height="40" as="alternateBounds" />
          </mxGeometry>
        </mxCell>
        <mxCell id="deoc2bzUFyKSPwzauPjy-55" value="" style="shape=partialRectangle;html=1;whiteSpace=wrap;connectable=0;overflow=hidden;fillColor=none;top=0;left=0;bottom=0;right=0;pointerEvents=1;" vertex="1" parent="deoc2bzUFyKSPwzauPjy-2">
          <mxGeometry x="558" width="10" height="40" as="geometry">
            <mxRectangle width="10" height="40" as="alternateBounds" />
          </mxGeometry>
        </mxCell>
        <mxCell id="deoc2bzUFyKSPwzauPjy-56" value="" style="shape=partialRectangle;html=1;whiteSpace=wrap;connectable=0;overflow=hidden;fillColor=none;top=0;left=0;bottom=0;right=0;pointerEvents=1;" vertex="1" parent="deoc2bzUFyKSPwzauPjy-2">
          <mxGeometry x="568" width="10" height="40" as="geometry">
            <mxRectangle width="10" height="40" as="alternateBounds" />
          </mxGeometry>
        </mxCell>
        <mxCell id="deoc2bzUFyKSPwzauPjy-57" value="" style="shape=partialRectangle;html=1;whiteSpace=wrap;connectable=0;overflow=hidden;fillColor=none;top=0;left=0;bottom=0;right=0;pointerEvents=1;" vertex="1" parent="deoc2bzUFyKSPwzauPjy-2">
          <mxGeometry x="578" width="12" height="40" as="geometry">
            <mxRectangle width="12" height="40" as="alternateBounds" />
          </mxGeometry>
        </mxCell>
        <mxCell id="deoc2bzUFyKSPwzauPjy-58" value="" style="shape=partialRectangle;html=1;whiteSpace=wrap;connectable=0;overflow=hidden;fillColor=none;top=0;left=0;bottom=0;right=0;pointerEvents=1;" vertex="1" parent="deoc2bzUFyKSPwzauPjy-2">
          <mxGeometry x="590" width="10" height="40" as="geometry">
            <mxRectangle width="10" height="40" as="alternateBounds" />
          </mxGeometry>
        </mxCell>
        <mxCell id="deoc2bzUFyKSPwzauPjy-59" style="shape=partialRectangle;html=1;whiteSpace=wrap;connectable=0;overflow=hidden;fillColor=none;top=0;left=0;bottom=0;right=0;pointerEvents=1;" vertex="1" parent="deoc2bzUFyKSPwzauPjy-2">
          <mxGeometry x="600" width="10" height="40" as="geometry">
            <mxRectangle width="10" height="40" as="alternateBounds" />
          </mxGeometry>
        </mxCell>
        <mxCell id="deoc2bzUFyKSPwzauPjy-60" style="shape=partialRectangle;html=1;whiteSpace=wrap;connectable=0;overflow=hidden;fillColor=none;top=0;left=0;bottom=0;right=0;pointerEvents=1;" vertex="1" parent="deoc2bzUFyKSPwzauPjy-2">
          <mxGeometry x="610" width="10" height="40" as="geometry">
            <mxRectangle width="10" height="40" as="alternateBounds" />
          </mxGeometry>
        </mxCell>
        <mxCell id="deoc2bzUFyKSPwzauPjy-61" style="shape=partialRectangle;html=1;whiteSpace=wrap;connectable=0;overflow=hidden;fillColor=none;top=0;left=0;bottom=0;right=0;pointerEvents=1;" vertex="1" parent="deoc2bzUFyKSPwzauPjy-2">
          <mxGeometry x="620" width="10" height="40" as="geometry">
            <mxRectangle width="10" height="40" as="alternateBounds" />
          </mxGeometry>
        </mxCell>
        <mxCell id="deoc2bzUFyKSPwzauPjy-62" style="shape=partialRectangle;html=1;whiteSpace=wrap;connectable=0;overflow=hidden;fillColor=none;top=0;left=0;bottom=0;right=0;pointerEvents=1;" vertex="1" parent="deoc2bzUFyKSPwzauPjy-2">
          <mxGeometry x="630" width="10" height="40" as="geometry">
            <mxRectangle width="10" height="40" as="alternateBounds" />
          </mxGeometry>
        </mxCell>
        <mxCell id="deoc2bzUFyKSPwzauPjy-63" style="shape=partialRectangle;html=1;whiteSpace=wrap;connectable=0;overflow=hidden;fillColor=none;top=0;left=0;bottom=0;right=0;pointerEvents=1;" vertex="1" parent="deoc2bzUFyKSPwzauPjy-2">
          <mxGeometry x="640" width="12" height="40" as="geometry">
            <mxRectangle width="12" height="40" as="alternateBounds" />
          </mxGeometry>
        </mxCell>
        <mxCell id="deoc2bzUFyKSPwzauPjy-64" style="shape=partialRectangle;html=1;whiteSpace=wrap;connectable=0;overflow=hidden;fillColor=none;top=0;left=0;bottom=0;right=0;pointerEvents=1;" vertex="1" parent="deoc2bzUFyKSPwzauPjy-2">
          <mxGeometry x="652" width="10" height="40" as="geometry">
            <mxRectangle width="10" height="40" as="alternateBounds" />
          </mxGeometry>
        </mxCell>
        <mxCell id="deoc2bzUFyKSPwzauPjy-65" style="shape=partialRectangle;html=1;whiteSpace=wrap;connectable=0;overflow=hidden;fillColor=none;top=0;left=0;bottom=0;right=0;pointerEvents=1;" vertex="1" parent="deoc2bzUFyKSPwzauPjy-2">
          <mxGeometry x="662" width="9" height="40" as="geometry">
            <mxRectangle width="9" height="40" as="alternateBounds" />
          </mxGeometry>
        </mxCell>
        <mxCell id="deoc2bzUFyKSPwzauPjy-66" value="0" style="shape=partialRectangle;html=1;whiteSpace=wrap;connectable=0;overflow=hidden;fillColor=none;top=0;left=0;bottom=0;right=0;pointerEvents=1;" vertex="1" parent="deoc2bzUFyKSPwzauPjy-2">
          <mxGeometry x="671" width="10" height="40" as="geometry">
            <mxRectangle width="10" height="40" as="alternateBounds" />
          </mxGeometry>
        </mxCell>
        <mxCell id="deoc2bzUFyKSPwzauPjy-67" value="" style="shape=table;startSize=0;container=1;collapsible=0;childLayout=tableLayout;" vertex="1" parent="1">
          <mxGeometry x="-718" y="709" width="681" height="40" as="geometry" />
        </mxCell>
        <mxCell id="deoc2bzUFyKSPwzauPjy-68" value="" style="shape=tableRow;horizontal=0;startSize=0;swimlaneHead=0;swimlaneBody=0;top=0;left=0;bottom=0;right=0;collapsible=0;dropTarget=0;fillColor=none;points=[[0,0.5],[1,0.5]];portConstraint=eastwest;" vertex="1" parent="deoc2bzUFyKSPwzauPjy-67">
          <mxGeometry width="681" height="40" as="geometry" />
        </mxCell>
        <mxCell id="deoc2bzUFyKSPwzauPjy-69" value="6&lt;br&gt;3" style="shape=partialRectangle;html=1;whiteSpace=wrap;connectable=0;overflow=hidden;fillColor=none;top=0;left=0;bottom=0;right=0;pointerEvents=1;" vertex="1" parent="deoc2bzUFyKSPwzauPjy-68">
          <mxGeometry width="11" height="40" as="geometry">
            <mxRectangle width="11" height="40" as="alternateBounds" />
          </mxGeometry>
        </mxCell>
        <mxCell id="deoc2bzUFyKSPwzauPjy-70" value="" style="shape=partialRectangle;html=1;whiteSpace=wrap;connectable=0;overflow=hidden;fillColor=none;top=0;left=0;bottom=0;right=0;pointerEvents=1;" vertex="1" parent="deoc2bzUFyKSPwzauPjy-68">
          <mxGeometry x="11" width="9" height="40" as="geometry">
            <mxRectangle width="9" height="40" as="alternateBounds" />
          </mxGeometry>
        </mxCell>
        <mxCell id="deoc2bzUFyKSPwzauPjy-71" value="" style="shape=partialRectangle;html=1;whiteSpace=wrap;connectable=0;overflow=hidden;fillColor=none;top=0;left=0;bottom=0;right=0;pointerEvents=1;" vertex="1" parent="deoc2bzUFyKSPwzauPjy-68">
          <mxGeometry x="20" width="10" height="40" as="geometry">
            <mxRectangle width="10" height="40" as="alternateBounds" />
          </mxGeometry>
        </mxCell>
        <mxCell id="deoc2bzUFyKSPwzauPjy-72" value="" style="shape=partialRectangle;html=1;whiteSpace=wrap;connectable=0;overflow=hidden;fillColor=none;top=0;left=0;bottom=0;right=0;pointerEvents=1;" vertex="1" parent="deoc2bzUFyKSPwzauPjy-68">
          <mxGeometry x="30" width="10" height="40" as="geometry">
            <mxRectangle width="10" height="40" as="alternateBounds" />
          </mxGeometry>
        </mxCell>
        <mxCell id="deoc2bzUFyKSPwzauPjy-73" value="" style="shape=partialRectangle;html=1;whiteSpace=wrap;connectable=0;overflow=hidden;fillColor=none;top=0;left=0;bottom=0;right=0;pointerEvents=1;" vertex="1" parent="deoc2bzUFyKSPwzauPjy-68">
          <mxGeometry x="40" width="11" height="40" as="geometry">
            <mxRectangle width="11" height="40" as="alternateBounds" />
          </mxGeometry>
        </mxCell>
        <mxCell id="deoc2bzUFyKSPwzauPjy-74" value="" style="shape=partialRectangle;html=1;whiteSpace=wrap;connectable=0;overflow=hidden;fillColor=none;top=0;left=0;bottom=0;right=0;pointerEvents=1;" vertex="1" parent="deoc2bzUFyKSPwzauPjy-68">
          <mxGeometry x="51" width="9" height="40" as="geometry">
            <mxRectangle width="9" height="40" as="alternateBounds" />
          </mxGeometry>
        </mxCell>
        <mxCell id="deoc2bzUFyKSPwzauPjy-75" value="" style="shape=partialRectangle;html=1;whiteSpace=wrap;connectable=0;overflow=hidden;fillColor=none;top=0;left=0;bottom=0;right=0;pointerEvents=1;" vertex="1" parent="deoc2bzUFyKSPwzauPjy-68">
          <mxGeometry x="60" width="11" height="40" as="geometry">
            <mxRectangle width="11" height="40" as="alternateBounds" />
          </mxGeometry>
        </mxCell>
        <mxCell id="deoc2bzUFyKSPwzauPjy-76" value="" style="shape=partialRectangle;html=1;whiteSpace=wrap;connectable=0;overflow=hidden;fillColor=none;top=0;left=0;bottom=0;right=0;pointerEvents=1;" vertex="1" parent="deoc2bzUFyKSPwzauPjy-68">
          <mxGeometry x="71" width="9" height="40" as="geometry">
            <mxRectangle width="9" height="40" as="alternateBounds" />
          </mxGeometry>
        </mxCell>
        <mxCell id="deoc2bzUFyKSPwzauPjy-77" value="" style="shape=partialRectangle;html=1;whiteSpace=wrap;connectable=0;overflow=hidden;fillColor=none;top=0;left=0;bottom=0;right=0;pointerEvents=1;" vertex="1" parent="deoc2bzUFyKSPwzauPjy-68">
          <mxGeometry x="80" width="11" height="40" as="geometry">
            <mxRectangle width="11" height="40" as="alternateBounds" />
          </mxGeometry>
        </mxCell>
        <mxCell id="deoc2bzUFyKSPwzauPjy-78" value="" style="shape=partialRectangle;html=1;whiteSpace=wrap;connectable=0;overflow=hidden;fillColor=none;top=0;left=0;bottom=0;right=0;pointerEvents=1;" vertex="1" parent="deoc2bzUFyKSPwzauPjy-68">
          <mxGeometry x="91" width="9" height="40" as="geometry">
            <mxRectangle width="9" height="40" as="alternateBounds" />
          </mxGeometry>
        </mxCell>
        <mxCell id="deoc2bzUFyKSPwzauPjy-79" value="" style="shape=partialRectangle;html=1;whiteSpace=wrap;connectable=0;overflow=hidden;fillColor=none;top=0;left=0;bottom=0;right=0;pointerEvents=1;" vertex="1" parent="deoc2bzUFyKSPwzauPjy-68">
          <mxGeometry x="100" width="10" height="40" as="geometry">
            <mxRectangle width="10" height="40" as="alternateBounds" />
          </mxGeometry>
        </mxCell>
        <mxCell id="deoc2bzUFyKSPwzauPjy-80" value="" style="shape=partialRectangle;html=1;whiteSpace=wrap;connectable=0;overflow=hidden;fillColor=none;top=0;left=0;bottom=0;right=0;pointerEvents=1;" vertex="1" parent="deoc2bzUFyKSPwzauPjy-68">
          <mxGeometry x="110" width="11" height="40" as="geometry">
            <mxRectangle width="11" height="40" as="alternateBounds" />
          </mxGeometry>
        </mxCell>
        <mxCell id="deoc2bzUFyKSPwzauPjy-81" value="" style="shape=partialRectangle;html=1;whiteSpace=wrap;connectable=0;overflow=hidden;fillColor=none;top=0;left=0;bottom=0;right=0;pointerEvents=1;" vertex="1" parent="deoc2bzUFyKSPwzauPjy-68">
          <mxGeometry x="121" width="9" height="40" as="geometry">
            <mxRectangle width="9" height="40" as="alternateBounds" />
          </mxGeometry>
        </mxCell>
        <mxCell id="deoc2bzUFyKSPwzauPjy-82" value="" style="shape=partialRectangle;html=1;whiteSpace=wrap;connectable=0;overflow=hidden;fillColor=none;top=0;left=0;bottom=0;right=0;pointerEvents=1;" vertex="1" parent="deoc2bzUFyKSPwzauPjy-68">
          <mxGeometry x="130" width="11" height="40" as="geometry">
            <mxRectangle width="11" height="40" as="alternateBounds" />
          </mxGeometry>
        </mxCell>
        <mxCell id="deoc2bzUFyKSPwzauPjy-83" value="" style="shape=partialRectangle;html=1;whiteSpace=wrap;connectable=0;overflow=hidden;fillColor=none;top=0;left=0;bottom=0;right=0;pointerEvents=1;" vertex="1" parent="deoc2bzUFyKSPwzauPjy-68">
          <mxGeometry x="141" width="9" height="40" as="geometry">
            <mxRectangle width="9" height="40" as="alternateBounds" />
          </mxGeometry>
        </mxCell>
        <mxCell id="deoc2bzUFyKSPwzauPjy-84" value="" style="shape=partialRectangle;html=1;whiteSpace=wrap;connectable=0;overflow=hidden;fillColor=none;top=0;left=0;bottom=0;right=0;pointerEvents=1;" vertex="1" parent="deoc2bzUFyKSPwzauPjy-68">
          <mxGeometry x="150" width="11" height="40" as="geometry">
            <mxRectangle width="11" height="40" as="alternateBounds" />
          </mxGeometry>
        </mxCell>
        <mxCell id="deoc2bzUFyKSPwzauPjy-85" value="" style="shape=partialRectangle;html=1;whiteSpace=wrap;connectable=0;overflow=hidden;fillColor=none;top=0;left=0;bottom=0;right=0;pointerEvents=1;" vertex="1" parent="deoc2bzUFyKSPwzauPjy-68">
          <mxGeometry x="161" width="10" height="40" as="geometry">
            <mxRectangle width="10" height="40" as="alternateBounds" />
          </mxGeometry>
        </mxCell>
        <mxCell id="deoc2bzUFyKSPwzauPjy-86" value="" style="shape=partialRectangle;html=1;whiteSpace=wrap;connectable=0;overflow=hidden;fillColor=none;top=0;left=0;bottom=0;right=0;pointerEvents=1;" vertex="1" parent="deoc2bzUFyKSPwzauPjy-68">
          <mxGeometry x="171" width="10" height="40" as="geometry">
            <mxRectangle width="10" height="40" as="alternateBounds" />
          </mxGeometry>
        </mxCell>
        <mxCell id="deoc2bzUFyKSPwzauPjy-87" value="" style="shape=partialRectangle;html=1;whiteSpace=wrap;connectable=0;overflow=hidden;fillColor=none;top=0;left=0;bottom=0;right=0;pointerEvents=1;" vertex="1" parent="deoc2bzUFyKSPwzauPjy-68">
          <mxGeometry x="181" width="9" height="40" as="geometry">
            <mxRectangle width="9" height="40" as="alternateBounds" />
          </mxGeometry>
        </mxCell>
        <mxCell id="deoc2bzUFyKSPwzauPjy-88" value="" style="shape=partialRectangle;html=1;whiteSpace=wrap;connectable=0;overflow=hidden;fillColor=none;top=0;left=0;bottom=0;right=0;pointerEvents=1;" vertex="1" parent="deoc2bzUFyKSPwzauPjy-68">
          <mxGeometry x="190" width="11" height="40" as="geometry">
            <mxRectangle width="11" height="40" as="alternateBounds" />
          </mxGeometry>
        </mxCell>
        <mxCell id="deoc2bzUFyKSPwzauPjy-89" style="shape=partialRectangle;html=1;whiteSpace=wrap;connectable=0;overflow=hidden;fillColor=none;top=0;left=0;bottom=0;right=0;pointerEvents=1;" vertex="1" parent="deoc2bzUFyKSPwzauPjy-68">
          <mxGeometry x="201" width="11" height="40" as="geometry">
            <mxRectangle width="11" height="40" as="alternateBounds" />
          </mxGeometry>
        </mxCell>
        <mxCell id="deoc2bzUFyKSPwzauPjy-90" style="shape=partialRectangle;html=1;whiteSpace=wrap;connectable=0;overflow=hidden;fillColor=none;top=0;left=0;bottom=0;right=0;pointerEvents=1;" vertex="1" parent="deoc2bzUFyKSPwzauPjy-68">
          <mxGeometry x="212" width="10" height="40" as="geometry">
            <mxRectangle width="10" height="40" as="alternateBounds" />
          </mxGeometry>
        </mxCell>
        <mxCell id="deoc2bzUFyKSPwzauPjy-91" style="shape=partialRectangle;html=1;whiteSpace=wrap;connectable=0;overflow=hidden;fillColor=none;top=0;left=0;bottom=0;right=0;pointerEvents=1;" vertex="1" parent="deoc2bzUFyKSPwzauPjy-68">
          <mxGeometry x="222" width="11" height="40" as="geometry">
            <mxRectangle width="11" height="40" as="alternateBounds" />
          </mxGeometry>
        </mxCell>
        <mxCell id="deoc2bzUFyKSPwzauPjy-92" style="shape=partialRectangle;html=1;whiteSpace=wrap;connectable=0;overflow=hidden;fillColor=none;top=0;left=0;bottom=0;right=0;pointerEvents=1;" vertex="1" parent="deoc2bzUFyKSPwzauPjy-68">
          <mxGeometry x="233" width="12" height="40" as="geometry">
            <mxRectangle width="12" height="40" as="alternateBounds" />
          </mxGeometry>
        </mxCell>
        <mxCell id="deoc2bzUFyKSPwzauPjy-93" style="shape=partialRectangle;html=1;whiteSpace=wrap;connectable=0;overflow=hidden;fillColor=none;top=0;left=0;bottom=0;right=0;pointerEvents=1;" vertex="1" parent="deoc2bzUFyKSPwzauPjy-68">
          <mxGeometry x="245" width="11" height="40" as="geometry">
            <mxRectangle width="11" height="40" as="alternateBounds" />
          </mxGeometry>
        </mxCell>
        <mxCell id="deoc2bzUFyKSPwzauPjy-94" style="shape=partialRectangle;html=1;whiteSpace=wrap;connectable=0;overflow=hidden;fillColor=none;top=0;left=0;bottom=0;right=0;pointerEvents=1;" vertex="1" parent="deoc2bzUFyKSPwzauPjy-68">
          <mxGeometry x="256" width="10" height="40" as="geometry">
            <mxRectangle width="10" height="40" as="alternateBounds" />
          </mxGeometry>
        </mxCell>
        <mxCell id="deoc2bzUFyKSPwzauPjy-95" style="shape=partialRectangle;html=1;whiteSpace=wrap;connectable=0;overflow=hidden;fillColor=none;top=0;left=0;bottom=0;right=0;pointerEvents=1;" vertex="1" parent="deoc2bzUFyKSPwzauPjy-68">
          <mxGeometry x="266" width="11" height="40" as="geometry">
            <mxRectangle width="11" height="40" as="alternateBounds" />
          </mxGeometry>
        </mxCell>
        <mxCell id="deoc2bzUFyKSPwzauPjy-96" style="shape=partialRectangle;html=1;whiteSpace=wrap;connectable=0;overflow=hidden;fillColor=none;top=0;left=0;bottom=0;right=0;pointerEvents=1;" vertex="1" parent="deoc2bzUFyKSPwzauPjy-68">
          <mxGeometry x="277" width="11" height="40" as="geometry">
            <mxRectangle width="11" height="40" as="alternateBounds" />
          </mxGeometry>
        </mxCell>
        <mxCell id="deoc2bzUFyKSPwzauPjy-97" style="shape=partialRectangle;html=1;whiteSpace=wrap;connectable=0;overflow=hidden;fillColor=none;top=0;left=0;bottom=0;right=0;pointerEvents=1;" vertex="1" parent="deoc2bzUFyKSPwzauPjy-68">
          <mxGeometry x="288" width="11" height="40" as="geometry">
            <mxRectangle width="11" height="40" as="alternateBounds" />
          </mxGeometry>
        </mxCell>
        <mxCell id="deoc2bzUFyKSPwzauPjy-98" style="shape=partialRectangle;html=1;whiteSpace=wrap;connectable=0;overflow=hidden;fillColor=none;top=0;left=0;bottom=0;right=0;pointerEvents=1;" vertex="1" parent="deoc2bzUFyKSPwzauPjy-68">
          <mxGeometry x="299" width="11" height="40" as="geometry">
            <mxRectangle width="11" height="40" as="alternateBounds" />
          </mxGeometry>
        </mxCell>
        <mxCell id="deoc2bzUFyKSPwzauPjy-99" style="shape=partialRectangle;html=1;whiteSpace=wrap;connectable=0;overflow=hidden;fillColor=none;top=0;left=0;bottom=0;right=0;pointerEvents=1;" vertex="1" parent="deoc2bzUFyKSPwzauPjy-68">
          <mxGeometry x="310" width="11" height="40" as="geometry">
            <mxRectangle width="11" height="40" as="alternateBounds" />
          </mxGeometry>
        </mxCell>
        <mxCell id="deoc2bzUFyKSPwzauPjy-100" style="shape=partialRectangle;html=1;whiteSpace=wrap;connectable=0;overflow=hidden;fillColor=none;top=0;left=0;bottom=0;right=0;pointerEvents=1;" vertex="1" parent="deoc2bzUFyKSPwzauPjy-68">
          <mxGeometry x="321" width="11" height="40" as="geometry">
            <mxRectangle width="11" height="40" as="alternateBounds" />
          </mxGeometry>
        </mxCell>
        <mxCell id="deoc2bzUFyKSPwzauPjy-101" style="shape=partialRectangle;html=1;whiteSpace=wrap;connectable=0;overflow=hidden;fillColor=none;top=0;left=0;bottom=0;right=0;pointerEvents=1;" vertex="1" parent="deoc2bzUFyKSPwzauPjy-68">
          <mxGeometry x="332" width="11" height="40" as="geometry">
            <mxRectangle width="11" height="40" as="alternateBounds" />
          </mxGeometry>
        </mxCell>
        <mxCell id="deoc2bzUFyKSPwzauPjy-102" style="shape=partialRectangle;html=1;whiteSpace=wrap;connectable=0;overflow=hidden;fillColor=none;top=0;left=0;bottom=0;right=0;pointerEvents=1;" vertex="1" parent="deoc2bzUFyKSPwzauPjy-68">
          <mxGeometry x="343" width="10" height="40" as="geometry">
            <mxRectangle width="10" height="40" as="alternateBounds" />
          </mxGeometry>
        </mxCell>
        <mxCell id="deoc2bzUFyKSPwzauPjy-103" style="shape=partialRectangle;html=1;whiteSpace=wrap;connectable=0;overflow=hidden;fillColor=none;top=0;left=0;bottom=0;right=0;pointerEvents=1;" vertex="1" parent="deoc2bzUFyKSPwzauPjy-68">
          <mxGeometry x="353" width="11" height="40" as="geometry">
            <mxRectangle width="11" height="40" as="alternateBounds" />
          </mxGeometry>
        </mxCell>
        <mxCell id="deoc2bzUFyKSPwzauPjy-104" style="shape=partialRectangle;html=1;whiteSpace=wrap;connectable=0;overflow=hidden;fillColor=none;top=0;left=0;bottom=0;right=0;pointerEvents=1;" vertex="1" parent="deoc2bzUFyKSPwzauPjy-68">
          <mxGeometry x="364" width="12" height="40" as="geometry">
            <mxRectangle width="12" height="40" as="alternateBounds" />
          </mxGeometry>
        </mxCell>
        <mxCell id="deoc2bzUFyKSPwzauPjy-105" style="shape=partialRectangle;html=1;whiteSpace=wrap;connectable=0;overflow=hidden;fillColor=none;top=0;left=0;bottom=0;right=0;pointerEvents=1;" vertex="1" parent="deoc2bzUFyKSPwzauPjy-68">
          <mxGeometry x="376" width="11" height="40" as="geometry">
            <mxRectangle width="11" height="40" as="alternateBounds" />
          </mxGeometry>
        </mxCell>
        <mxCell id="deoc2bzUFyKSPwzauPjy-106" style="shape=partialRectangle;html=1;whiteSpace=wrap;connectable=0;overflow=hidden;fillColor=none;top=0;left=0;bottom=0;right=0;pointerEvents=1;" vertex="1" parent="deoc2bzUFyKSPwzauPjy-68">
          <mxGeometry x="387" width="10" height="40" as="geometry">
            <mxRectangle width="10" height="40" as="alternateBounds" />
          </mxGeometry>
        </mxCell>
        <mxCell id="deoc2bzUFyKSPwzauPjy-107" style="shape=partialRectangle;html=1;whiteSpace=wrap;connectable=0;overflow=hidden;fillColor=none;top=0;left=0;bottom=0;right=0;pointerEvents=1;" vertex="1" parent="deoc2bzUFyKSPwzauPjy-68">
          <mxGeometry x="397" width="11" height="40" as="geometry">
            <mxRectangle width="11" height="40" as="alternateBounds" />
          </mxGeometry>
        </mxCell>
        <mxCell id="deoc2bzUFyKSPwzauPjy-108" style="shape=partialRectangle;html=1;whiteSpace=wrap;connectable=0;overflow=hidden;fillColor=none;top=0;left=0;bottom=0;right=0;pointerEvents=1;" vertex="1" parent="deoc2bzUFyKSPwzauPjy-68">
          <mxGeometry x="408" width="11" height="40" as="geometry">
            <mxRectangle width="11" height="40" as="alternateBounds" />
          </mxGeometry>
        </mxCell>
        <mxCell id="deoc2bzUFyKSPwzauPjy-109" style="shape=partialRectangle;html=1;whiteSpace=wrap;connectable=0;overflow=hidden;fillColor=none;top=0;left=0;bottom=0;right=0;pointerEvents=1;" vertex="1" parent="deoc2bzUFyKSPwzauPjy-68">
          <mxGeometry x="419" width="11" height="40" as="geometry">
            <mxRectangle width="11" height="40" as="alternateBounds" />
          </mxGeometry>
        </mxCell>
        <mxCell id="deoc2bzUFyKSPwzauPjy-110" style="shape=partialRectangle;html=1;whiteSpace=wrap;connectable=0;overflow=hidden;fillColor=none;top=0;left=0;bottom=0;right=0;pointerEvents=1;" vertex="1" parent="deoc2bzUFyKSPwzauPjy-68">
          <mxGeometry x="430" width="10" height="40" as="geometry">
            <mxRectangle width="10" height="40" as="alternateBounds" />
          </mxGeometry>
        </mxCell>
        <mxCell id="deoc2bzUFyKSPwzauPjy-111" style="shape=partialRectangle;html=1;whiteSpace=wrap;connectable=0;overflow=hidden;fillColor=none;top=0;left=0;bottom=0;right=0;pointerEvents=1;" vertex="1" parent="deoc2bzUFyKSPwzauPjy-68">
          <mxGeometry x="440" width="12" height="40" as="geometry">
            <mxRectangle width="12" height="40" as="alternateBounds" />
          </mxGeometry>
        </mxCell>
        <mxCell id="deoc2bzUFyKSPwzauPjy-112" style="shape=partialRectangle;html=1;whiteSpace=wrap;connectable=0;overflow=hidden;fillColor=none;top=0;left=0;bottom=0;right=0;pointerEvents=1;" vertex="1" parent="deoc2bzUFyKSPwzauPjy-68">
          <mxGeometry x="452" width="11" height="40" as="geometry">
            <mxRectangle width="11" height="40" as="alternateBounds" />
          </mxGeometry>
        </mxCell>
        <mxCell id="deoc2bzUFyKSPwzauPjy-113" style="shape=partialRectangle;html=1;whiteSpace=wrap;connectable=0;overflow=hidden;fillColor=none;top=0;left=0;bottom=0;right=0;pointerEvents=1;" vertex="1" parent="deoc2bzUFyKSPwzauPjy-68">
          <mxGeometry x="463" width="11" height="40" as="geometry">
            <mxRectangle width="11" height="40" as="alternateBounds" />
          </mxGeometry>
        </mxCell>
        <mxCell id="deoc2bzUFyKSPwzauPjy-114" style="shape=partialRectangle;html=1;whiteSpace=wrap;connectable=0;overflow=hidden;fillColor=none;top=0;left=0;bottom=0;right=0;pointerEvents=1;" vertex="1" parent="deoc2bzUFyKSPwzauPjy-68">
          <mxGeometry x="474" width="10" height="40" as="geometry">
            <mxRectangle width="10" height="40" as="alternateBounds" />
          </mxGeometry>
        </mxCell>
        <mxCell id="deoc2bzUFyKSPwzauPjy-115" style="shape=partialRectangle;html=1;whiteSpace=wrap;connectable=0;overflow=hidden;fillColor=none;top=0;left=0;bottom=0;right=0;pointerEvents=1;" vertex="1" parent="deoc2bzUFyKSPwzauPjy-68">
          <mxGeometry x="484" width="11" height="40" as="geometry">
            <mxRectangle width="11" height="40" as="alternateBounds" />
          </mxGeometry>
        </mxCell>
        <mxCell id="deoc2bzUFyKSPwzauPjy-116" style="shape=partialRectangle;html=1;whiteSpace=wrap;connectable=0;overflow=hidden;fillColor=none;top=0;left=0;bottom=0;right=0;pointerEvents=1;" vertex="1" parent="deoc2bzUFyKSPwzauPjy-68">
          <mxGeometry x="495" width="11" height="40" as="geometry">
            <mxRectangle width="11" height="40" as="alternateBounds" />
          </mxGeometry>
        </mxCell>
        <mxCell id="deoc2bzUFyKSPwzauPjy-117" style="shape=partialRectangle;html=1;whiteSpace=wrap;connectable=0;overflow=hidden;fillColor=none;top=0;left=0;bottom=0;right=0;pointerEvents=1;" vertex="1" parent="deoc2bzUFyKSPwzauPjy-68">
          <mxGeometry x="506" width="12" height="40" as="geometry">
            <mxRectangle width="12" height="40" as="alternateBounds" />
          </mxGeometry>
        </mxCell>
        <mxCell id="deoc2bzUFyKSPwzauPjy-118" style="shape=partialRectangle;html=1;whiteSpace=wrap;connectable=0;overflow=hidden;fillColor=none;top=0;left=0;bottom=0;right=0;pointerEvents=1;" vertex="1" parent="deoc2bzUFyKSPwzauPjy-68">
          <mxGeometry x="518" width="10" height="40" as="geometry">
            <mxRectangle width="10" height="40" as="alternateBounds" />
          </mxGeometry>
        </mxCell>
        <mxCell id="deoc2bzUFyKSPwzauPjy-119" style="shape=partialRectangle;html=1;whiteSpace=wrap;connectable=0;overflow=hidden;fillColor=none;top=0;left=0;bottom=0;right=0;pointerEvents=1;" vertex="1" parent="deoc2bzUFyKSPwzauPjy-68">
          <mxGeometry x="528" width="11" height="40" as="geometry">
            <mxRectangle width="11" height="40" as="alternateBounds" />
          </mxGeometry>
        </mxCell>
        <mxCell id="deoc2bzUFyKSPwzauPjy-120" style="shape=partialRectangle;html=1;whiteSpace=wrap;connectable=0;overflow=hidden;fillColor=none;top=0;left=0;bottom=0;right=0;pointerEvents=1;" vertex="1" parent="deoc2bzUFyKSPwzauPjy-68">
          <mxGeometry x="539" width="11" height="40" as="geometry">
            <mxRectangle width="11" height="40" as="alternateBounds" />
          </mxGeometry>
        </mxCell>
        <mxCell id="deoc2bzUFyKSPwzauPjy-121" style="shape=partialRectangle;html=1;whiteSpace=wrap;connectable=0;overflow=hidden;fillColor=none;top=0;left=0;bottom=0;right=0;pointerEvents=1;" vertex="1" parent="deoc2bzUFyKSPwzauPjy-68">
          <mxGeometry x="550" width="11" height="40" as="geometry">
            <mxRectangle width="11" height="40" as="alternateBounds" />
          </mxGeometry>
        </mxCell>
        <mxCell id="deoc2bzUFyKSPwzauPjy-122" style="shape=partialRectangle;html=1;whiteSpace=wrap;connectable=0;overflow=hidden;fillColor=none;top=0;left=0;bottom=0;right=0;pointerEvents=1;" vertex="1" parent="deoc2bzUFyKSPwzauPjy-68">
          <mxGeometry x="561" width="10" height="40" as="geometry">
            <mxRectangle width="10" height="40" as="alternateBounds" />
          </mxGeometry>
        </mxCell>
        <mxCell id="deoc2bzUFyKSPwzauPjy-123" style="shape=partialRectangle;html=1;whiteSpace=wrap;connectable=0;overflow=hidden;fillColor=none;top=0;left=0;bottom=0;right=0;pointerEvents=1;" vertex="1" parent="deoc2bzUFyKSPwzauPjy-68">
          <mxGeometry x="571" width="12" height="40" as="geometry">
            <mxRectangle width="12" height="40" as="alternateBounds" />
          </mxGeometry>
        </mxCell>
        <mxCell id="deoc2bzUFyKSPwzauPjy-124" style="shape=partialRectangle;html=1;whiteSpace=wrap;connectable=0;overflow=hidden;fillColor=none;top=0;left=0;bottom=0;right=0;pointerEvents=1;" vertex="1" parent="deoc2bzUFyKSPwzauPjy-68">
          <mxGeometry x="583" width="11" height="40" as="geometry">
            <mxRectangle width="11" height="40" as="alternateBounds" />
          </mxGeometry>
        </mxCell>
        <mxCell id="deoc2bzUFyKSPwzauPjy-125" style="shape=partialRectangle;html=1;whiteSpace=wrap;connectable=0;overflow=hidden;fillColor=none;top=0;left=0;bottom=0;right=0;pointerEvents=1;" vertex="1" parent="deoc2bzUFyKSPwzauPjy-68">
          <mxGeometry x="594" width="11" height="40" as="geometry">
            <mxRectangle width="11" height="40" as="alternateBounds" />
          </mxGeometry>
        </mxCell>
        <mxCell id="deoc2bzUFyKSPwzauPjy-126" style="shape=partialRectangle;html=1;whiteSpace=wrap;connectable=0;overflow=hidden;fillColor=none;top=0;left=0;bottom=0;right=0;pointerEvents=1;" vertex="1" parent="deoc2bzUFyKSPwzauPjy-68">
          <mxGeometry x="605" width="10" height="40" as="geometry">
            <mxRectangle width="10" height="40" as="alternateBounds" />
          </mxGeometry>
        </mxCell>
        <mxCell id="deoc2bzUFyKSPwzauPjy-127" style="shape=partialRectangle;html=1;whiteSpace=wrap;connectable=0;overflow=hidden;fillColor=none;top=0;left=0;bottom=0;right=0;pointerEvents=1;" vertex="1" parent="deoc2bzUFyKSPwzauPjy-68">
          <mxGeometry x="615" width="11" height="40" as="geometry">
            <mxRectangle width="11" height="40" as="alternateBounds" />
          </mxGeometry>
        </mxCell>
        <mxCell id="deoc2bzUFyKSPwzauPjy-128" style="shape=partialRectangle;html=1;whiteSpace=wrap;connectable=0;overflow=hidden;fillColor=none;top=0;left=0;bottom=0;right=0;pointerEvents=1;" vertex="1" parent="deoc2bzUFyKSPwzauPjy-68">
          <mxGeometry x="626" width="11" height="40" as="geometry">
            <mxRectangle width="11" height="40" as="alternateBounds" />
          </mxGeometry>
        </mxCell>
        <mxCell id="deoc2bzUFyKSPwzauPjy-129" style="shape=partialRectangle;html=1;whiteSpace=wrap;connectable=0;overflow=hidden;fillColor=none;top=0;left=0;bottom=0;right=0;pointerEvents=1;" vertex="1" parent="deoc2bzUFyKSPwzauPjy-68">
          <mxGeometry x="637" width="12" height="40" as="geometry">
            <mxRectangle width="12" height="40" as="alternateBounds" />
          </mxGeometry>
        </mxCell>
        <mxCell id="deoc2bzUFyKSPwzauPjy-130" style="shape=partialRectangle;html=1;whiteSpace=wrap;connectable=0;overflow=hidden;fillColor=none;top=0;left=0;bottom=0;right=0;pointerEvents=1;" vertex="1" parent="deoc2bzUFyKSPwzauPjy-68">
          <mxGeometry x="649" width="10" height="40" as="geometry">
            <mxRectangle width="10" height="40" as="alternateBounds" />
          </mxGeometry>
        </mxCell>
        <mxCell id="deoc2bzUFyKSPwzauPjy-131" style="shape=partialRectangle;html=1;whiteSpace=wrap;connectable=0;overflow=hidden;fillColor=none;top=0;left=0;bottom=0;right=0;pointerEvents=1;" vertex="1" parent="deoc2bzUFyKSPwzauPjy-68">
          <mxGeometry x="659" width="11" height="40" as="geometry">
            <mxRectangle width="11" height="40" as="alternateBounds" />
          </mxGeometry>
        </mxCell>
        <mxCell id="deoc2bzUFyKSPwzauPjy-132" value="0" style="shape=partialRectangle;html=1;whiteSpace=wrap;connectable=0;overflow=hidden;fillColor=none;top=0;left=0;bottom=0;right=0;pointerEvents=1;" vertex="1" parent="deoc2bzUFyKSPwzauPjy-68">
          <mxGeometry x="670" width="11" height="40" as="geometry">
            <mxRectangle width="11" height="40" as="alternateBounds" />
          </mxGeometry>
        </mxCell>
        <mxCell id="deoc2bzUFyKSPwzauPjy-133" value="" style="shape=table;startSize=0;container=1;collapsible=0;childLayout=tableLayout;" vertex="1" parent="1">
          <mxGeometry x="-779" y="549" width="60" height="40" as="geometry" />
        </mxCell>
        <mxCell id="deoc2bzUFyKSPwzauPjy-134" value="" style="shape=tableRow;horizontal=0;startSize=0;swimlaneHead=0;swimlaneBody=0;top=0;left=0;bottom=0;right=0;collapsible=0;dropTarget=0;fillColor=none;points=[[0,0.5],[1,0.5]];portConstraint=eastwest;" vertex="1" parent="deoc2bzUFyKSPwzauPjy-133">
          <mxGeometry width="60" height="40" as="geometry" />
        </mxCell>
        <mxCell id="deoc2bzUFyKSPwzauPjy-135" value="Quad&lt;br&gt;Word" style="shape=partialRectangle;html=1;whiteSpace=wrap;connectable=0;overflow=hidden;fillColor=none;top=0;left=0;bottom=0;right=0;pointerEvents=1;" vertex="1" parent="deoc2bzUFyKSPwzauPjy-134">
          <mxGeometry width="60" height="40" as="geometry">
            <mxRectangle width="60" height="40" as="alternateBounds" />
          </mxGeometry>
        </mxCell>
        <mxCell id="deoc2bzUFyKSPwzauPjy-136" value="xxx" style="rounded=0;whiteSpace=wrap;html=1;" vertex="1" parent="1">
          <mxGeometry x="-718" y="629" width="528" height="40" as="geometry" />
        </mxCell>
        <mxCell id="deoc2bzUFyKSPwzauPjy-137" value="" style="shape=table;startSize=0;container=1;collapsible=0;childLayout=tableLayout;" vertex="1" parent="1">
          <mxGeometry x="-779" y="589" width="60" height="80" as="geometry" />
        </mxCell>
        <mxCell id="deoc2bzUFyKSPwzauPjy-138" value="" style="shape=tableRow;horizontal=0;startSize=0;swimlaneHead=0;swimlaneBody=0;top=0;left=0;bottom=0;right=0;collapsible=0;dropTarget=0;fillColor=none;points=[[0,0.5],[1,0.5]];portConstraint=eastwest;" vertex="1" parent="deoc2bzUFyKSPwzauPjy-137">
          <mxGeometry width="60" height="80" as="geometry" />
        </mxCell>
        <mxCell id="deoc2bzUFyKSPwzauPjy-139" value="0" style="shape=partialRectangle;html=1;whiteSpace=wrap;connectable=0;overflow=hidden;fillColor=none;top=0;left=0;bottom=0;right=0;pointerEvents=1;" vertex="1" parent="deoc2bzUFyKSPwzauPjy-138">
          <mxGeometry width="60" height="80" as="geometry">
            <mxRectangle width="60" height="80" as="alternateBounds" />
          </mxGeometry>
        </mxCell>
        <mxCell id="deoc2bzUFyKSPwzauPjy-140" value="" style="shape=table;startSize=0;container=1;collapsible=0;childLayout=tableLayout;" vertex="1" parent="1">
          <mxGeometry x="-779" y="669" width="60" height="80" as="geometry" />
        </mxCell>
        <mxCell id="deoc2bzUFyKSPwzauPjy-141" value="" style="shape=tableRow;horizontal=0;startSize=0;swimlaneHead=0;swimlaneBody=0;top=0;left=0;bottom=0;right=0;collapsible=0;dropTarget=0;fillColor=none;points=[[0,0.5],[1,0.5]];portConstraint=eastwest;" vertex="1" parent="deoc2bzUFyKSPwzauPjy-140">
          <mxGeometry width="60" height="80" as="geometry" />
        </mxCell>
        <mxCell id="deoc2bzUFyKSPwzauPjy-142" value="1" style="shape=partialRectangle;html=1;whiteSpace=wrap;connectable=0;overflow=hidden;fillColor=none;top=0;left=0;bottom=0;right=0;pointerEvents=1;" vertex="1" parent="deoc2bzUFyKSPwzauPjy-141">
          <mxGeometry width="60" height="80" as="geometry">
            <mxRectangle width="60" height="80" as="alternateBounds" />
          </mxGeometry>
        </mxCell>
        <mxCell id="deoc2bzUFyKSPwzauPjy-143" value="" style="edgeStyle=orthogonalEdgeStyle;rounded=0;orthogonalLoop=1;jettySize=auto;html=1;" edge="1" parent="1" source="deoc2bzUFyKSPwzauPjy-144" target="deoc2bzUFyKSPwzauPjy-148">
          <mxGeometry relative="1" as="geometry" />
        </mxCell>
        <mxCell id="deoc2bzUFyKSPwzauPjy-144" value="" style="shape=table;startSize=0;container=1;collapsible=0;childLayout=tableLayout;" vertex="1" parent="1">
          <mxGeometry x="-130" y="669" width="92" height="40" as="geometry" />
        </mxCell>
        <mxCell id="deoc2bzUFyKSPwzauPjy-145" value="" style="shape=tableRow;horizontal=0;startSize=0;swimlaneHead=0;swimlaneBody=0;top=0;left=0;bottom=0;right=0;collapsible=0;dropTarget=0;fillColor=none;points=[[0,0.5],[1,0.5]];portConstraint=eastwest;" vertex="1" parent="deoc2bzUFyKSPwzauPjy-144">
          <mxGeometry width="92" height="40" as="geometry" />
        </mxCell>
        <mxCell id="deoc2bzUFyKSPwzauPjy-146" value="type&lt;br&gt;(programming)" style="shape=partialRectangle;html=1;whiteSpace=wrap;connectable=0;overflow=hidden;fillColor=none;top=0;left=0;bottom=0;right=0;pointerEvents=1;" vertex="1" parent="deoc2bzUFyKSPwzauPjy-145">
          <mxGeometry width="92" height="40" as="geometry">
            <mxRectangle width="92" height="40" as="alternateBounds" />
          </mxGeometry>
        </mxCell>
        <mxCell id="deoc2bzUFyKSPwzauPjy-147" value="xxx" style="rounded=0;whiteSpace=wrap;html=1;" vertex="1" parent="1">
          <mxGeometry x="-720" y="669" width="590" height="40" as="geometry" />
        </mxCell>
        <mxCell id="deoc2bzUFyKSPwzauPjy-148" value="packet type" style="rounded=0;whiteSpace=wrap;html=1;" vertex="1" parent="1">
          <mxGeometry x="-190" y="629" width="150" height="40" as="geometry" />
        </mxCell>
      </root>
    </mxGraphModel>
  </diagram>
</mxfile>
